<?xml version="1.0" encoding="utf-8"?>
<!-- Generator: Adobe Illustrator 16.0.0, SVG Export Plug-In . SVG Version: 6.00 Build 0)  -->
<!DOCTYPE svg PUBLIC "-//W3C//DTD SVG 1.1//EN" "http://www.w3.org/Graphics/SVG/1.1/DTD/svg11.dtd">
<svg version="1.1" id="图层_1" xmlns="http://www.w3.org/2000/svg" xmlns:xlink="http://www.w3.org/1999/xlink" x="0px" y="0px"
	 width="124.548px" height="140.562px" viewBox="0 0 124.548 140.562" enable-background="new 0 0 124.548 140.562"
	 xml:space="preserve">
<g>
	<defs>
		<path id="SVGID_1_" d="M71.195,77.694c-0.412,0.72-0.162,1.636,0.556,2.047l47.232,27.039l-46.414,26.752L5.509,95.128
			l18.492-10.678c0.718-0.413,0.962-1.331,0.548-2.049s-1.333-0.962-2.048-0.549L1.75,93.835c-0.465,0.267-0.751,0.764-0.75,1.3
			c0.001,0.537,0.289,1.032,0.755,1.3l70.071,40.129c0.231,0.132,0.488,0.198,0.746,0.198c0.258,0,0.517-0.067,0.748-0.2
			l49.423-28.486c0.466-0.269,0.752-0.766,0.752-1.302c-0.002-0.537-0.29-1.033-0.756-1.3L73.241,77.138
			c-0.235-0.135-0.491-0.199-0.744-0.199C71.977,76.939,71.472,77.21,71.195,77.694"/>
	</defs>
	<clipPath id="SVGID_2_">
		<use xlink:href="#SVGID_1_"  overflow="visible"/>
	</clipPath>
	
		<linearGradient id="SVGID_3_" gradientUnits="userSpaceOnUse" x1="-198.2046" y1="366.7085" x2="-197.2046" y2="366.7085" gradientTransform="matrix(97 -64 -64 -97 42701.9063 23029.1973)">
		<stop  offset="0" style="stop-color:#CADB41"/>
		<stop  offset="0.2728" style="stop-color:#97D360"/>
		<stop  offset="0.8938" style="stop-color:#17BEAC"/>
		<stop  offset="1" style="stop-color:#01BABA"/>
	</linearGradient>
	<polygon clip-path="url(#SVGID_2_)" fill="url(#SVGID_3_)" points="-26.5,95.083 86.342,20.63 150.995,118.619 38.151,193.072 	"/>
</g>
<g>
	<defs>
		
			<rect id="SVGID_4_" x="23.4" y="82.027" transform="matrix(-0.4999 -0.8661 0.8661 -0.4999 -35.8425 144.8588)" width="1" height="1.5"/>
	</defs>
	<clipPath id="SVGID_5_">
		<use xlink:href="#SVGID_4_"  overflow="visible"/>
	</clipPath>
	
		<linearGradient id="SVGID_6_" gradientUnits="userSpaceOnUse" x1="-198.2046" y1="366.7495" x2="-197.2046" y2="366.7495" gradientTransform="matrix(97 -64 -64 -97 42681.9219 22998.8223)">
		<stop  offset="0" style="stop-color:#CADB41"/>
		<stop  offset="0.2728" style="stop-color:#97D360"/>
		<stop  offset="0.8938" style="stop-color:#17BEAC"/>
		<stop  offset="1" style="stop-color:#01BABA"/>
	</linearGradient>
	<polygon clip-path="url(#SVGID_5_)" fill="url(#SVGID_6_)" points="22.258,82.459 24.254,81.142 25.543,83.095 23.546,84.413 	"/>
</g>
<g>
	<defs>
		<path id="SVGID_7_" d="M25.923,81.032l0.5,0.866l2.435-1.406l-0.501-0.865L25.923,81.032z M29.98,78.689l0.5,0.866l2.436-1.406
			l-0.5-0.864L29.98,78.689z M34.039,76.346l0.5,0.866l2.435-1.405l-0.501-0.867L34.039,76.346z M38.096,74.003l0.501,0.866
			l2.434-1.405l-0.499-0.867L38.096,74.003z M42.155,71.661l0.501,0.865l2.434-1.405l-0.5-0.865L42.155,71.661z M46.213,69.317
			l0.5,0.866l2.434-1.405l-0.499-0.867L46.213,69.317z"/>
	</defs>
	<clipPath id="SVGID_8_">
		<use xlink:href="#SVGID_7_"  overflow="visible"/>
	</clipPath>
	
		<linearGradient id="SVGID_9_" gradientUnits="userSpaceOnUse" x1="-198.2046" y1="366.7515" x2="-197.2046" y2="366.7515" gradientTransform="matrix(97 -64 -64 -97 42682.4375 22999.6973)">
		<stop  offset="0" style="stop-color:#CADB41"/>
		<stop  offset="0.2728" style="stop-color:#97D360"/>
		<stop  offset="0.8938" style="stop-color:#17BEAC"/>
		<stop  offset="1" style="stop-color:#01BABA"/>
	</linearGradient>
	<polygon clip-path="url(#SVGID_8_)" fill="url(#SVGID_9_)" points="19.493,72.154 42.103,57.235 55.577,77.656 32.967,92.574 	"/>
</g>
<g>
	<defs>
		<path id="SVGID_10_" d="M51.57,66.223l-1.299,0.751l0.501,0.866l1.05-0.607l1.055,0.601l0.494-0.869l-1.304-0.742
			c-0.076-0.044-0.162-0.066-0.248-0.066S51.647,66.179,51.57,66.223"/>
	</defs>
	<clipPath id="SVGID_11_">
		<use xlink:href="#SVGID_10_"  overflow="visible"/>
	</clipPath>
	
		<linearGradient id="SVGID_12_" gradientUnits="userSpaceOnUse" x1="-198.2046" y1="366.7534" x2="-197.2046" y2="366.7534" gradientTransform="matrix(97 -64 -64 -97 42683.25 23000.9473)">
		<stop  offset="0" style="stop-color:#CADB41"/>
		<stop  offset="0.2728" style="stop-color:#97D360"/>
		<stop  offset="0.8938" style="stop-color:#17BEAC"/>
		<stop  offset="1" style="stop-color:#01BABA"/>
	</linearGradient>
	<polygon clip-path="url(#SVGID_11_)" fill="url(#SVGID_12_)" points="49.497,66.667 52.431,64.732 54.145,67.33 51.211,69.265 	"/>
</g>
<g>
	<defs>
		<path id="SVGID_13_" d="M66.838,75.792l2.464,1.403l0.496-0.869l-2.464-1.403L66.838,75.792z M62.731,73.451l2.464,1.404
			l0.496-0.869l-2.463-1.403L62.731,73.451z M58.625,71.11l2.464,1.404l0.496-0.868l-2.464-1.404L58.625,71.11z M54.518,68.77
			l2.465,1.404l0.496-0.869l-2.465-1.404L54.518,68.77z"/>
	</defs>
	<clipPath id="SVGID_14_">
		<use xlink:href="#SVGID_13_"  overflow="visible"/>
	</clipPath>
	
		<linearGradient id="SVGID_15_" gradientUnits="userSpaceOnUse" x1="-198.2046" y1="366.7515" x2="-197.2046" y2="366.7515" gradientTransform="matrix(97 -64 -64 -97 42688.8281 23009.3223)">
		<stop  offset="0" style="stop-color:#CADB41"/>
		<stop  offset="0.2728" style="stop-color:#97D360"/>
		<stop  offset="0.8938" style="stop-color:#17BEAC"/>
		<stop  offset="1" style="stop-color:#01BABA"/>
	</linearGradient>
	<polygon clip-path="url(#SVGID_14_)" fill="url(#SVGID_15_)" points="50.246,70.72 65.164,60.877 74.07,74.376 59.152,84.219 	"/>
</g>
<g>
	<defs>
		
			<rect id="SVGID_16_" x="71.094" y="77.567" transform="matrix(-0.8688 -0.4951 0.4951 -0.8688 95.6156 181.4659)" width="1.501" height="1.001"/>
	</defs>
	<clipPath id="SVGID_17_">
		<use xlink:href="#SVGID_16_"  overflow="visible"/>
	</clipPath>
	
		<linearGradient id="SVGID_18_" gradientUnits="userSpaceOnUse" x1="-198.2046" y1="366.7515" x2="-197.2046" y2="366.7515" gradientTransform="matrix(97 -64 -64 -97 42694.2969 23017.6973)">
		<stop  offset="0" style="stop-color:#CADB41"/>
		<stop  offset="0.2728" style="stop-color:#97D360"/>
		<stop  offset="0.8938" style="stop-color:#17BEAC"/>
		<stop  offset="1" style="stop-color:#01BABA"/>
	</linearGradient>
	<polygon clip-path="url(#SVGID_17_)" fill="url(#SVGID_18_)" points="70.204,77.751 72.198,76.435 73.485,78.385 71.491,79.701 	
		"/>
</g>
<g>
	<defs>
		<path id="SVGID_19_" d="M96.23,1.206L22.492,44.418c-0.459,0.269-0.741,0.763-0.741,1.294v61.259c0,0.536,0.286,1.032,0.751,1.3
			c0.231,0.134,0.49,0.2,0.749,0.2c0.26,0,0.52-0.067,0.752-0.202l49.245-28.532c0.717-0.415,0.961-1.333,0.546-2.05
			c-0.416-0.718-1.334-0.961-2.05-0.546L24.751,104.37V46.572L95.488,5.117v25.582c0,0.828,0.672,1.5,1.501,1.5
			c0.828,0,1.499-0.672,1.499-1.5V2.5c0-0.538-0.288-1.034-0.753-1.302C97.504,1.066,97.246,1,96.989,1
			C96.727,1,96.465,1.068,96.23,1.206"/>
	</defs>
	<clipPath id="SVGID_20_">
		<use xlink:href="#SVGID_19_"  overflow="visible"/>
	</clipPath>
	
		<linearGradient id="SVGID_21_" gradientUnits="userSpaceOnUse" x1="-198.2041" y1="366.7534" x2="-197.2041" y2="366.7534" gradientTransform="matrix(119.5 -67.5 -67.5 -119.5 48431.8633 30542.1758)">
		<stop  offset="0" style="stop-color:#CADB41"/>
		<stop  offset="0.2728" style="stop-color:#97D360"/>
		<stop  offset="0.8938" style="stop-color:#17BEAC"/>
		<stop  offset="1" style="stop-color:#01BABA"/>
	</linearGradient>
	<polygon clip-path="url(#SVGID_20_)" fill="url(#SVGID_21_)" points="-24.271,26.996 79.926,-31.86 144.51,82.476 40.313,141.332 	
		"/>
</g>
<g>
	<defs>
		<rect id="SVGID_22_" x="96.488" y="30.7" width="1" height="1.499"/>
	</defs>
	<clipPath id="SVGID_23_">
		<use xlink:href="#SVGID_22_"  overflow="visible"/>
	</clipPath>
	
		<linearGradient id="SVGID_24_" gradientUnits="userSpaceOnUse" x1="-198.2041" y1="366.7534" x2="-197.2041" y2="366.7534" gradientTransform="matrix(119.5 -67.5 -67.5 -119.5 48430.8008 30540.3008)">
		<stop  offset="0" style="stop-color:#CADB41"/>
		<stop  offset="0.2728" style="stop-color:#97D360"/>
		<stop  offset="0.8938" style="stop-color:#17BEAC"/>
		<stop  offset="1" style="stop-color:#01BABA"/>
	</linearGradient>
	<polygon clip-path="url(#SVGID_23_)" fill="url(#SVGID_24_)" points="95.846,31.063 97.246,30.272 98.13,31.836 96.73,32.627 	"/>
</g>
<g>
	<defs>
		<path id="SVGID_25_" d="M96.488,60.841h1v-2.865h-1V60.841z M96.488,56.067h1v-2.864h-1V56.067z M96.488,51.293h1v-2.864h-1
			V51.293z M96.488,46.52h1v-2.864h-1V46.52z M96.488,41.747h1v-2.865h-1V41.747z M96.488,36.973h1v-2.865h-1V36.973z"/>
	</defs>
	<clipPath id="SVGID_26_">
		<use xlink:href="#SVGID_25_"  overflow="visible"/>
	</clipPath>
	
		<linearGradient id="SVGID_27_" gradientUnits="userSpaceOnUse" x1="-198.2041" y1="366.7534" x2="-197.2041" y2="366.7534" gradientTransform="matrix(119.5 -67.5 -67.5 -119.5 48437.6758 30552.5508)">
		<stop  offset="0" style="stop-color:#CADB41"/>
		<stop  offset="0.2728" style="stop-color:#97D360"/>
		<stop  offset="0.8938" style="stop-color:#17BEAC"/>
		<stop  offset="1" style="stop-color:#01BABA"/>
	</linearGradient>
	<polygon clip-path="url(#SVGID_26_)" fill="url(#SVGID_27_)" points="85.04,40.575 97.246,33.68 108.936,54.375 96.73,61.27 	"/>
</g>
<g>
	<defs>
		<path id="SVGID_28_" d="M96.488,62.749v1.214l-1.047,0.611l0.504,0.864l1.296-0.756c0.153-0.09,0.247-0.255,0.247-0.432v-1.501
			H96.488z"/>
	</defs>
	<clipPath id="SVGID_29_">
		<use xlink:href="#SVGID_28_"  overflow="visible"/>
	</clipPath>
	
		<linearGradient id="SVGID_30_" gradientUnits="userSpaceOnUse" x1="-198.2212" y1="366.7534" x2="-197.1994" y2="366.7534" gradientTransform="matrix(119.5 -67.5 -67.5 -119.5 48444.6133 30564.8008)">
		<stop  offset="0" style="stop-color:#CADB41"/>
		<stop  offset="0.2728" style="stop-color:#97D360"/>
		<stop  offset="0.8938" style="stop-color:#17BEAC"/>
		<stop  offset="1" style="stop-color:#01BABA"/>
	</linearGradient>
	<polygon clip-path="url(#SVGID_29_)" fill="url(#SVGID_30_)" points="94.29,63.399 96.993,61.873 98.64,64.788 95.936,66.315 	"/>
</g>
<g>
	<defs>
		<path id="SVGID_31_" d="M75.322,76.312l0.504,0.864l2.414-1.409l-0.503-0.863L75.322,76.312z M79.346,73.965l0.504,0.863
			l2.414-1.408l-0.504-0.863L79.346,73.965z M83.369,71.617l0.504,0.863l2.414-1.408l-0.503-0.863L83.369,71.617z M87.394,69.27
			l0.504,0.863l2.413-1.408l-0.504-0.864L87.394,69.27z M91.417,66.922l0.504,0.863l2.414-1.409l-0.504-0.863L91.417,66.922z"/>
	</defs>
	<clipPath id="SVGID_32_">
		<use xlink:href="#SVGID_31_"  overflow="visible"/>
	</clipPath>
	
		<linearGradient id="SVGID_33_" gradientUnits="userSpaceOnUse" x1="-198.2021" y1="366.7534" x2="-197.2052" y2="366.7534" gradientTransform="matrix(119.5 -67.5 -67.5 -119.5 48444.957 30565.4258)">
		<stop  offset="0" style="stop-color:#CADB41"/>
		<stop  offset="0.2728" style="stop-color:#97D360"/>
		<stop  offset="0.8938" style="stop-color:#17BEAC"/>
		<stop  offset="1" style="stop-color:#01BABA"/>
	</linearGradient>
	<polygon clip-path="url(#SVGID_32_)" fill="url(#SVGID_33_)" points="70.328,68.334 89.736,57.372 99.329,74.355 79.921,85.318 	
		"/>
</g>
<g>
	<defs>
		
			<rect id="SVGID_34_" x="72.817" y="77.31" transform="matrix(-0.5037 -0.8639 0.8639 -0.5037 42.8105 180.7162)" width="1" height="1.501"/>
	</defs>
	<clipPath id="SVGID_35_">
		<use xlink:href="#SVGID_34_"  overflow="visible"/>
	</clipPath>
	
		<linearGradient id="SVGID_36_" gradientUnits="userSpaceOnUse" x1="-198.2041" y1="366.7534" x2="-197.2041" y2="366.7534" gradientTransform="matrix(119.5 -67.5 -67.5 -119.5 48445.0508 30565.5508)">
		<stop  offset="0" style="stop-color:#CADB41"/>
		<stop  offset="0.2728" style="stop-color:#97D360"/>
		<stop  offset="0.8938" style="stop-color:#17BEAC"/>
		<stop  offset="1" style="stop-color:#01BABA"/>
	</linearGradient>
	<polygon clip-path="url(#SVGID_35_)" fill="url(#SVGID_36_)" points="71.723,77.643 73.782,76.48 74.911,78.479 72.853,79.642 	"/>
</g>
<g>
	<defs>
		<path id="SVGID_37_" d="M71.733,15.542c-0.462,0.269-0.745,0.762-0.745,1.296v61.601c0,0.829,0.672,1.5,1.5,1.5
			c0.829,0,1.5-0.671,1.5-1.5V19.41l46.994,26.589l-0.716,89.168l-24.501-14.072c-0.717-0.413-1.635-0.166-2.048,0.553
			c-0.412,0.718-0.166,1.635,0.554,2.048l26.728,15.352c0.231,0.133,0.489,0.199,0.747,0.199c0.258,0,0.516-0.066,0.746-0.198
			c0.463-0.267,0.75-0.757,0.754-1.29l0.743-92.618c0.003-0.544-0.288-1.049-0.763-1.318l-49.999-28.29
			c-0.229-0.13-0.484-0.194-0.739-0.194C72.227,15.338,71.966,15.406,71.733,15.542"/>
	</defs>
	<clipPath id="SVGID_38_">
		<use xlink:href="#SVGID_37_"  overflow="visible"/>
	</clipPath>
	
		<linearGradient id="SVGID_39_" gradientUnits="userSpaceOnUse" x1="-198.1987" y1="366.7739" x2="-197.1992" y2="366.7739" gradientTransform="matrix(-0.5 124.5 124.5 0.5 -45664.6406 24517.8438)">
		<stop  offset="0" style="stop-color:#CADB41"/>
		<stop  offset="0.2728" style="stop-color:#97D360"/>
		<stop  offset="0.8938" style="stop-color:#17BEAC"/>
		<stop  offset="1" style="stop-color:#01BABA"/>
	</linearGradient>
	<polygon clip-path="url(#SVGID_38_)" fill="url(#SVGID_39_)" points="124.49,15.34 123.991,139.459 70.49,139.245 70.989,15.125 	
		"/>
</g>
<g>
	<defs>
		
			<rect id="SVGID_40_" x="93.618" y="121.521" transform="matrix(-0.8671 -0.4982 0.4982 -0.8671 115.4035 274.8358)" width="1.5" height="1.001"/>
	</defs>
	<clipPath id="SVGID_41_">
		<use xlink:href="#SVGID_40_"  overflow="visible"/>
	</clipPath>
	
		<linearGradient id="SVGID_42_" gradientUnits="userSpaceOnUse" x1="-198.229" y1="366.771" x2="-197.1905" y2="366.771" gradientTransform="matrix(-0.5 124.5 124.5 0.5 -45667.3906 24517.8438)">
		<stop  offset="0" style="stop-color:#CADB41"/>
		<stop  offset="0.2728" style="stop-color:#97D360"/>
		<stop  offset="0.8938" style="stop-color:#17BEAC"/>
		<stop  offset="1" style="stop-color:#01BABA"/>
	</linearGradient>
	<polygon clip-path="url(#SVGID_41_)" fill="url(#SVGID_42_)" points="95.273,121.214 95.267,122.836 93.461,122.83 93.468,121.207 
			"/>
</g>
<g>
	<defs>
		<path id="SVGID_43_" d="M88.938,119.481l2.718,1.562l0.499-0.868l-2.718-1.562L88.938,119.481z M84.409,116.879l2.718,1.561
			l0.498-0.867l-2.718-1.562L84.409,116.879z M79.88,114.278l2.718,1.562l0.497-0.868l-2.716-1.561L79.88,114.278z M75.352,111.677
			l2.716,1.561l0.498-0.867l-2.717-1.562L75.352,111.677z"/>
	</defs>
	<clipPath id="SVGID_44_">
		<use xlink:href="#SVGID_43_"  overflow="visible"/>
	</clipPath>
	
		<linearGradient id="SVGID_45_" gradientUnits="userSpaceOnUse" x1="-198.2031" y1="366.772" x2="-197.1972" y2="366.772" gradientTransform="matrix(-0.5 124.5 124.5 0.5 -45678.0156 24517.7813)">
		<stop  offset="0" style="stop-color:#CADB41"/>
		<stop  offset="0.2728" style="stop-color:#97D360"/>
		<stop  offset="0.8938" style="stop-color:#17BEAC"/>
		<stop  offset="1" style="stop-color:#01BABA"/>
	</linearGradient>
	<polygon clip-path="url(#SVGID_44_)" fill="url(#SVGID_45_)" points="92.196,110.809 92.155,121.11 75.311,121.042 75.352,110.742 
			"/>
</g>
<g>
	<defs>
		<path id="SVGID_46_" d="M71.988,107.957v1.5c0,0.179,0.096,0.344,0.252,0.434l1.3,0.747l0.498-0.868l-1.05-0.603v-1.21H71.988z"/>
	</defs>
	<clipPath id="SVGID_47_">
		<use xlink:href="#SVGID_46_"  overflow="visible"/>
	</clipPath>
	
		<linearGradient id="SVGID_48_" gradientUnits="userSpaceOnUse" x1="-198.2144" y1="366.771" x2="-197.1916" y2="366.771" gradientTransform="matrix(-0.5 124.5 124.5 0.5 -45688.7656 24517.7188)">
		<stop  offset="0" style="stop-color:#CADB41"/>
		<stop  offset="0.2728" style="stop-color:#97D360"/>
		<stop  offset="0.8938" style="stop-color:#17BEAC"/>
		<stop  offset="1" style="stop-color:#01BABA"/>
	</linearGradient>
	<polygon clip-path="url(#SVGID_47_)" fill="url(#SVGID_48_)" points="74.049,107.957 74.038,110.645 71.977,110.637 
		71.988,107.948 	"/>
</g>
<g>
	<defs>
		<path id="SVGID_49_" d="M71.988,105.88h1v-3.113h-1V105.88z M71.988,100.692h1V97.58h-1V100.692z M71.988,95.503h1v-3.112h-1
			V95.503z M71.988,90.315h1v-3.111h-1V90.315z M71.988,85.127h1v-3.113h-1V85.127z"/>
	</defs>
	<clipPath id="SVGID_50_">
		<use xlink:href="#SVGID_49_"  overflow="visible"/>
	</clipPath>
	
		<linearGradient id="SVGID_51_" gradientUnits="userSpaceOnUse" x1="-198.1978" y1="366.771" x2="-197.2003" y2="366.771" gradientTransform="matrix(-0.5 124.5 124.5 0.5 -45689.3906 24517.7188)">
		<stop  offset="0" style="stop-color:#CADB41"/>
		<stop  offset="0.2728" style="stop-color:#97D360"/>
		<stop  offset="0.8938" style="stop-color:#17BEAC"/>
		<stop  offset="1" style="stop-color:#01BABA"/>
	</linearGradient>
	<polygon clip-path="url(#SVGID_50_)" fill="url(#SVGID_51_)" points="73.084,82.014 72.988,105.884 71.892,105.879 71.988,82.01 	
		"/>
</g>
<g>
	<defs>
		<rect id="SVGID_52_" x="71.988" y="78.439" width="1" height="1.5"/>
	</defs>
	<clipPath id="SVGID_53_">
		<use xlink:href="#SVGID_52_"  overflow="visible"/>
	</clipPath>
	
		<linearGradient id="SVGID_54_" gradientUnits="userSpaceOnUse" x1="-198.2168" y1="366.771" x2="-197.1751" y2="366.771" gradientTransform="matrix(-0.5 124.5 124.5 0.5 -45689.3906 24517.7188)">
		<stop  offset="0" style="stop-color:#CADB41"/>
		<stop  offset="0.2728" style="stop-color:#97D360"/>
		<stop  offset="0.8938" style="stop-color:#17BEAC"/>
		<stop  offset="1" style="stop-color:#01BABA"/>
	</linearGradient>
	<polygon clip-path="url(#SVGID_53_)" fill="url(#SVGID_54_)" points="72.994,78.439 72.988,79.943 71.982,79.939 71.988,78.435 	
		"/>
</g>
</svg>
