<?xml version="1.0" encoding="utf-8"?>
<!-- Generator: Adobe Illustrator 16.0.0, SVG Export Plug-In . SVG Version: 6.00 Build 0)  -->
<!DOCTYPE svg PUBLIC "-//W3C//DTD SVG 1.1//EN" "http://www.w3.org/Graphics/SVG/1.1/DTD/svg11.dtd">
<svg version="1.1" id="图层_1" xmlns="http://www.w3.org/2000/svg" xmlns:xlink="http://www.w3.org/1999/xlink" x="0px" y="0px"
	 width="446.793px" height="139.247px" viewBox="0 0 446.793 139.247" enable-background="new 0 0 446.793 139.247"
	 xml:space="preserve">
<g>
	<defs>
		<path id="SVGID_1_" d="M70.695,77.194c-0.412,0.72-0.162,1.636,0.556,2.047l47.232,27.039l-46.414,26.752L5.009,94.628
			l18.492-10.678c0.718-0.413,0.962-1.331,0.548-2.049s-1.333-0.962-2.048-0.549L1.25,93.335c-0.465,0.267-0.751,0.764-0.75,1.3
			c0.001,0.537,0.289,1.032,0.755,1.3l70.071,40.129c0.231,0.132,0.488,0.198,0.746,0.198c0.258,0,0.517-0.067,0.748-0.2
			l49.423-28.486c0.466-0.269,0.752-0.766,0.752-1.302c-0.002-0.537-0.29-1.033-0.756-1.3L72.741,76.638
			c-0.235-0.135-0.491-0.199-0.744-0.199C71.477,76.439,70.972,76.71,70.695,77.194"/>
	</defs>
	<clipPath id="SVGID_2_">
		<use xlink:href="#SVGID_1_"  overflow="visible"/>
	</clipPath>
	
		<linearGradient id="SVGID_3_" gradientUnits="userSpaceOnUse" x1="-197.7065" y1="367.2212" x2="-196.7065" y2="367.2212" gradientTransform="matrix(97 -64 -64 -97 42685.875 23110.168)">
		<stop  offset="0" style="stop-color:#CADB41"/>
		<stop  offset="0.2728" style="stop-color:#97D360"/>
		<stop  offset="0.8939" style="stop-color:#17BEAC"/>
		<stop  offset="1" style="stop-color:#01BABA"/>
	</linearGradient>
	<polygon clip-path="url(#SVGID_2_)" fill="url(#SVGID_3_)" points="-27,94.583 85.842,20.13 150.495,118.119 37.651,192.572 	"/>
</g>
<g>
	<defs>
		
			<rect id="SVGID_4_" x="22.9" y="81.527" transform="matrix(-0.4999 -0.8661 0.8661 -0.4999 -36.1594 143.6758)" width="1" height="1.5"/>
	</defs>
	<clipPath id="SVGID_5_">
		<use xlink:href="#SVGID_4_"  overflow="visible"/>
	</clipPath>
	
		<linearGradient id="SVGID_6_" gradientUnits="userSpaceOnUse" x1="-197.7056" y1="367.2632" x2="-196.7056" y2="367.2632" gradientTransform="matrix(97 -64 -64 -97 42665.8906 23079.918)">
		<stop  offset="0" style="stop-color:#CADB41"/>
		<stop  offset="0.2728" style="stop-color:#97D360"/>
		<stop  offset="0.8939" style="stop-color:#17BEAC"/>
		<stop  offset="1" style="stop-color:#01BABA"/>
	</linearGradient>
	<polygon clip-path="url(#SVGID_5_)" fill="url(#SVGID_6_)" points="21.758,81.959 23.754,80.642 25.043,82.595 23.046,83.913 	"/>
</g>
<g>
	<defs>
		<path id="SVGID_7_" d="M25.423,80.532l0.5,0.866l2.435-1.406l-0.501-0.865L25.423,80.532z M29.48,78.189l0.5,0.866l2.436-1.406
			l-0.5-0.864L29.48,78.189z M33.539,75.846l0.5,0.866l2.435-1.405l-0.501-0.867L33.539,75.846z M37.596,73.503l0.501,0.866
			l2.434-1.405l-0.499-0.867L37.596,73.503z M41.655,71.161l0.501,0.865l2.434-1.405l-0.5-0.865L41.655,71.161z M45.713,68.817
			l0.5,0.866l2.434-1.405l-0.499-0.867L45.713,68.817z"/>
	</defs>
	<clipPath id="SVGID_8_">
		<use xlink:href="#SVGID_7_"  overflow="visible"/>
	</clipPath>
	
		<linearGradient id="SVGID_9_" gradientUnits="userSpaceOnUse" x1="-197.7065" y1="367.2632" x2="-196.7065" y2="367.2632" gradientTransform="matrix(97 -64 -64 -97 42666.4063 23080.668)">
		<stop  offset="0" style="stop-color:#CADB41"/>
		<stop  offset="0.2728" style="stop-color:#97D360"/>
		<stop  offset="0.8939" style="stop-color:#17BEAC"/>
		<stop  offset="1" style="stop-color:#01BABA"/>
	</linearGradient>
	<polygon clip-path="url(#SVGID_8_)" fill="url(#SVGID_9_)" points="18.993,71.654 41.603,56.735 55.077,77.156 32.467,92.074 	"/>
</g>
<g>
	<defs>
		<path id="SVGID_10_" d="M51.07,65.723l-1.299,0.751l0.501,0.866l1.05-0.607l1.055,0.601l0.494-0.869l-1.304-0.742
			c-0.076-0.044-0.162-0.066-0.248-0.066S51.147,65.679,51.07,65.723"/>
	</defs>
	<clipPath id="SVGID_11_">
		<use xlink:href="#SVGID_10_"  overflow="visible"/>
	</clipPath>
	
		<linearGradient id="SVGID_12_" gradientUnits="userSpaceOnUse" x1="-197.7061" y1="367.2651" x2="-196.7061" y2="367.2651" gradientTransform="matrix(97 -64 -64 -97 42667.2188 23081.918)">
		<stop  offset="0" style="stop-color:#CADB41"/>
		<stop  offset="0.2728" style="stop-color:#97D360"/>
		<stop  offset="0.8939" style="stop-color:#17BEAC"/>
		<stop  offset="1" style="stop-color:#01BABA"/>
	</linearGradient>
	<polygon clip-path="url(#SVGID_11_)" fill="url(#SVGID_12_)" points="48.997,66.167 51.931,64.232 53.645,66.83 50.711,68.765 	"/>
</g>
<g>
	<defs>
		<path id="SVGID_13_" d="M66.338,75.292l2.464,1.403l0.496-0.869l-2.464-1.403L66.338,75.292z M62.231,72.951l2.464,1.404
			l0.496-0.869l-2.463-1.403L62.231,72.951z M58.125,70.61l2.464,1.404l0.496-0.868l-2.464-1.405L58.125,70.61z M54.018,68.27
			l2.465,1.404l0.496-0.869l-2.465-1.404L54.018,68.27z"/>
	</defs>
	<clipPath id="SVGID_14_">
		<use xlink:href="#SVGID_13_"  overflow="visible"/>
	</clipPath>
	
		<linearGradient id="SVGID_15_" gradientUnits="userSpaceOnUse" x1="-197.7061" y1="367.2632" x2="-196.7061" y2="367.2632" gradientTransform="matrix(97 -64 -64 -97 42672.7969 23090.418)">
		<stop  offset="0" style="stop-color:#CADB41"/>
		<stop  offset="0.2728" style="stop-color:#97D360"/>
		<stop  offset="0.8939" style="stop-color:#17BEAC"/>
		<stop  offset="1" style="stop-color:#01BABA"/>
	</linearGradient>
	<polygon clip-path="url(#SVGID_14_)" fill="url(#SVGID_15_)" points="49.746,70.22 64.664,60.377 73.57,73.876 58.652,83.719 	"/>
</g>
<g>
	<defs>
		
			<rect id="SVGID_16_" x="70.594" y="77.067" transform="matrix(-0.8688 -0.4951 0.4951 -0.8688 94.9287 180.284)" width="1.501" height="1.001"/>
	</defs>
	<clipPath id="SVGID_17_">
		<use xlink:href="#SVGID_16_"  overflow="visible"/>
	</clipPath>
	
		<linearGradient id="SVGID_18_" gradientUnits="userSpaceOnUse" x1="-197.7061" y1="367.2632" x2="-196.7061" y2="367.2632" gradientTransform="matrix(97 -64 -64 -97 42678.2656 23098.668)">
		<stop  offset="0" style="stop-color:#CADB41"/>
		<stop  offset="0.2728" style="stop-color:#97D360"/>
		<stop  offset="0.8939" style="stop-color:#17BEAC"/>
		<stop  offset="1" style="stop-color:#01BABA"/>
	</linearGradient>
	<polygon clip-path="url(#SVGID_17_)" fill="url(#SVGID_18_)" points="69.704,77.251 71.698,75.935 72.985,77.885 70.991,79.201 	
		"/>
</g>
<g>
	<defs>
		<path id="SVGID_19_" d="M95.73,0.706L21.992,43.918c-0.459,0.269-0.741,0.763-0.741,1.294v61.259c0,0.536,0.286,1.032,0.751,1.3
			c0.231,0.134,0.49,0.2,0.749,0.2c0.26,0,0.52-0.067,0.752-0.202l49.245-28.532c0.717-0.415,0.961-1.333,0.546-2.05
			c-0.416-0.718-1.334-0.961-2.05-0.546L24.251,103.87V46.072L94.988,4.617v25.582c0,0.828,0.672,1.5,1.501,1.5
			c0.828,0,1.499-0.672,1.499-1.5V2c0-0.538-0.288-1.034-0.753-1.302C97.004,0.566,96.746,0.5,96.489,0.5
			C96.227,0.5,95.965,0.568,95.73,0.706"/>
	</defs>
	<clipPath id="SVGID_20_">
		<use xlink:href="#SVGID_19_"  overflow="visible"/>
	</clipPath>
	
		<linearGradient id="SVGID_21_" gradientUnits="userSpaceOnUse" x1="-197.708" y1="367.2632" x2="-196.708" y2="367.2632" gradientTransform="matrix(119.5 -67.5 -67.5 -119.5 48406.4219 30636.1152)">
		<stop  offset="0" style="stop-color:#CADB41"/>
		<stop  offset="0.2728" style="stop-color:#97D360"/>
		<stop  offset="0.8939" style="stop-color:#17BEAC"/>
		<stop  offset="1" style="stop-color:#01BABA"/>
	</linearGradient>
	<polygon clip-path="url(#SVGID_20_)" fill="url(#SVGID_21_)" points="-24.771,26.496 79.426,-32.36 144.01,81.976 39.813,140.832 	
		"/>
</g>
<g>
	<defs>
		<rect id="SVGID_22_" x="95.988" y="30.2" width="1" height="1.499"/>
	</defs>
	<clipPath id="SVGID_23_">
		<use xlink:href="#SVGID_22_"  overflow="visible"/>
	</clipPath>
	
		<linearGradient id="SVGID_24_" gradientUnits="userSpaceOnUse" x1="-197.7065" y1="367.2632" x2="-196.7065" y2="367.2632" gradientTransform="matrix(119.5 -67.5 -67.5 -119.5 48405.2656 30634.3652)">
		<stop  offset="0" style="stop-color:#CADB41"/>
		<stop  offset="0.2728" style="stop-color:#97D360"/>
		<stop  offset="0.8939" style="stop-color:#17BEAC"/>
		<stop  offset="1" style="stop-color:#01BABA"/>
	</linearGradient>
	<polygon clip-path="url(#SVGID_23_)" fill="url(#SVGID_24_)" points="95.346,30.563 96.746,29.772 97.63,31.336 96.23,32.127 	"/>
</g>
<g>
	<defs>
		<path id="SVGID_25_" d="M95.988,60.341h1v-2.865h-1V60.341z M95.988,55.567h1v-2.864h-1V55.567z M95.988,50.793h1v-2.864h-1
			V50.793z M95.988,46.02h1v-2.864h-1V46.02z M95.988,41.247h1v-2.865h-1V41.247z M95.988,36.473h1v-2.865h-1V36.473z"/>
	</defs>
	<clipPath id="SVGID_26_">
		<use xlink:href="#SVGID_25_"  overflow="visible"/>
	</clipPath>
	
		<linearGradient id="SVGID_27_" gradientUnits="userSpaceOnUse" x1="-197.708" y1="367.2632" x2="-196.708" y2="367.2632" gradientTransform="matrix(119.5 -67.5 -67.5 -119.5 48412.2344 30646.4902)">
		<stop  offset="0" style="stop-color:#CADB41"/>
		<stop  offset="0.2728" style="stop-color:#97D360"/>
		<stop  offset="0.8939" style="stop-color:#17BEAC"/>
		<stop  offset="1" style="stop-color:#01BABA"/>
	</linearGradient>
	<polygon clip-path="url(#SVGID_26_)" fill="url(#SVGID_27_)" points="84.54,40.075 96.746,33.18 108.436,53.875 96.23,60.77 	"/>
</g>
<g>
	<defs>
		<path id="SVGID_28_" d="M95.988,62.249v1.214l-1.047,0.611l0.504,0.864l1.296-0.756c0.153-0.09,0.247-0.255,0.247-0.432v-1.501
			H95.988z"/>
	</defs>
	<clipPath id="SVGID_29_">
		<use xlink:href="#SVGID_28_"  overflow="visible"/>
	</clipPath>
	
		<linearGradient id="SVGID_30_" gradientUnits="userSpaceOnUse" x1="-197.7075" y1="367.2632" x2="-196.7075" y2="367.2632" gradientTransform="matrix(119.5 -67.5 -67.5 -119.5 48419.1719 30658.8652)">
		<stop  offset="0" style="stop-color:#CADB41"/>
		<stop  offset="0.2728" style="stop-color:#97D360"/>
		<stop  offset="0.8939" style="stop-color:#17BEAC"/>
		<stop  offset="1" style="stop-color:#01BABA"/>
	</linearGradient>
	<polygon clip-path="url(#SVGID_29_)" fill="url(#SVGID_30_)" points="93.79,62.899 96.493,61.373 98.14,64.288 95.436,65.815 	"/>
</g>
<g>
	<defs>
		<path id="SVGID_31_" d="M74.822,75.812l0.504,0.864l2.414-1.409l-0.503-0.863L74.822,75.812z M78.846,73.465l0.504,0.863
			l2.414-1.408l-0.504-0.863L78.846,73.465z M82.869,71.117l0.504,0.863l2.414-1.408l-0.503-0.863L82.869,71.117z M86.894,68.77
			l0.504,0.863l2.413-1.408l-0.504-0.864L86.894,68.77z M90.917,66.422l0.504,0.863l2.414-1.409l-0.504-0.863L90.917,66.422z"/>
	</defs>
	<clipPath id="SVGID_32_">
		<use xlink:href="#SVGID_31_"  overflow="visible"/>
	</clipPath>
	
		<linearGradient id="SVGID_33_" gradientUnits="userSpaceOnUse" x1="-197.708" y1="367.2632" x2="-196.708" y2="367.2632" gradientTransform="matrix(119.5 -67.5 -67.5 -119.5 48419.5156 30659.3652)">
		<stop  offset="0" style="stop-color:#CADB41"/>
		<stop  offset="0.2728" style="stop-color:#97D360"/>
		<stop  offset="0.8939" style="stop-color:#17BEAC"/>
		<stop  offset="1" style="stop-color:#01BABA"/>
	</linearGradient>
	<polygon clip-path="url(#SVGID_32_)" fill="url(#SVGID_33_)" points="69.828,67.834 89.236,56.872 98.829,73.855 79.421,84.818 	
		"/>
</g>
<g>
	<defs>
		
			<rect id="SVGID_34_" x="72.317" y="76.81" transform="matrix(-0.5037 -0.8639 0.8639 -0.5037 42.4906 179.5324)" width="1" height="1.501"/>
	</defs>
	<clipPath id="SVGID_35_">
		<use xlink:href="#SVGID_34_"  overflow="visible"/>
	</clipPath>
	
		<linearGradient id="SVGID_36_" gradientUnits="userSpaceOnUse" x1="-197.7075" y1="367.2632" x2="-196.7075" y2="367.2632" gradientTransform="matrix(119.5 -67.5 -67.5 -119.5 48419.6094 30659.4902)">
		<stop  offset="0" style="stop-color:#CADB41"/>
		<stop  offset="0.2728" style="stop-color:#97D360"/>
		<stop  offset="0.8939" style="stop-color:#17BEAC"/>
		<stop  offset="1" style="stop-color:#01BABA"/>
	</linearGradient>
	<polygon clip-path="url(#SVGID_35_)" fill="url(#SVGID_36_)" points="71.223,77.143 73.282,75.98 74.411,77.979 72.353,79.142 	"/>
</g>
<g>
	<defs>
		<path id="SVGID_37_" d="M71.233,15.042c-0.462,0.269-0.745,0.762-0.745,1.296v61.601c0,0.829,0.672,1.5,1.5,1.5
			c0.829,0,1.5-0.671,1.5-1.5V18.91l46.994,26.589l-0.716,89.168l-24.501-14.072c-0.717-0.413-1.635-0.166-2.048,0.553
			c-0.412,0.718-0.166,1.635,0.554,2.048l26.728,15.352c0.231,0.133,0.489,0.199,0.747,0.199c0.258,0,0.516-0.066,0.746-0.198
			c0.463-0.267,0.75-0.757,0.754-1.29l0.743-92.618c0.003-0.544-0.288-1.049-0.763-1.318l-49.999-28.29
			c-0.229-0.13-0.484-0.194-0.739-0.194C71.727,14.838,71.466,14.906,71.233,15.042"/>
	</defs>
	<clipPath id="SVGID_38_">
		<use xlink:href="#SVGID_37_"  overflow="visible"/>
	</clipPath>
	
		<linearGradient id="SVGID_39_" gradientUnits="userSpaceOnUse" x1="-197.7065" y1="367.2651" x2="-196.7065" y2="367.2651" gradientTransform="matrix(-0.5 124.5 124.5 0.5 -45726.2031 24455.7207)">
		<stop  offset="0" style="stop-color:#CADB41"/>
		<stop  offset="0.2728" style="stop-color:#97D360"/>
		<stop  offset="0.8939" style="stop-color:#17BEAC"/>
		<stop  offset="1" style="stop-color:#01BABA"/>
	</linearGradient>
	<polygon clip-path="url(#SVGID_38_)" fill="url(#SVGID_39_)" points="123.99,14.84 123.491,138.959 69.99,138.745 70.489,14.625 	
		"/>
</g>
<g>
	<defs>
		
			<rect id="SVGID_40_" x="93.118" y="121.021" transform="matrix(-0.8671 -0.4982 0.4982 -0.8671 114.7191 273.6531)" width="1.5" height="1.001"/>
	</defs>
	<clipPath id="SVGID_41_">
		<use xlink:href="#SVGID_40_"  overflow="visible"/>
	</clipPath>
	
		<linearGradient id="SVGID_42_" gradientUnits="userSpaceOnUse" x1="-197.7065" y1="367.2632" x2="-196.7065" y2="367.2632" gradientTransform="matrix(-0.5 124.5 124.5 0.5 -45728.9531 24455.7207)">
		<stop  offset="0" style="stop-color:#CADB41"/>
		<stop  offset="0.2728" style="stop-color:#97D360"/>
		<stop  offset="0.8939" style="stop-color:#17BEAC"/>
		<stop  offset="1" style="stop-color:#01BABA"/>
	</linearGradient>
	<polygon clip-path="url(#SVGID_41_)" fill="url(#SVGID_42_)" points="94.773,120.714 94.767,122.336 92.961,122.33 92.968,120.707 
			"/>
</g>
<g>
	<defs>
		<path id="SVGID_43_" d="M88.438,118.981l2.718,1.562l0.499-0.868l-2.718-1.562L88.438,118.981z M83.909,116.379l2.718,1.561
			l0.498-0.867l-2.718-1.562L83.909,116.379z M79.38,113.778l2.718,1.562l0.497-0.868l-2.716-1.561L79.38,113.778z M74.852,111.177
			l2.716,1.561l0.498-0.867l-2.717-1.562L74.852,111.177z"/>
	</defs>
	<clipPath id="SVGID_44_">
		<use xlink:href="#SVGID_43_"  overflow="visible"/>
	</clipPath>
	
		<linearGradient id="SVGID_45_" gradientUnits="userSpaceOnUse" x1="-197.707" y1="367.2642" x2="-196.707" y2="367.2642" gradientTransform="matrix(-0.5 124.5 124.5 0.5 -45739.5781 24455.7207)">
		<stop  offset="0" style="stop-color:#CADB41"/>
		<stop  offset="0.2728" style="stop-color:#97D360"/>
		<stop  offset="0.8939" style="stop-color:#17BEAC"/>
		<stop  offset="1" style="stop-color:#01BABA"/>
	</linearGradient>
	<polygon clip-path="url(#SVGID_44_)" fill="url(#SVGID_45_)" points="91.696,110.309 91.655,120.61 74.811,120.542 74.852,110.242 
			"/>
</g>
<g>
	<defs>
		<path id="SVGID_46_" d="M71.488,107.457v1.5c0,0.179,0.096,0.344,0.252,0.434l1.3,0.747l0.498-0.868l-1.05-0.603v-1.21H71.488z"/>
	</defs>
	<clipPath id="SVGID_47_">
		<use xlink:href="#SVGID_46_"  overflow="visible"/>
	</clipPath>
	
		<linearGradient id="SVGID_48_" gradientUnits="userSpaceOnUse" x1="-197.707" y1="367.2651" x2="-196.707" y2="367.2651" gradientTransform="matrix(-0.5 124.5 124.5 0.5 -45750.3281 24455.6582)">
		<stop  offset="0" style="stop-color:#CADB41"/>
		<stop  offset="0.2728" style="stop-color:#97D360"/>
		<stop  offset="0.8939" style="stop-color:#17BEAC"/>
		<stop  offset="1" style="stop-color:#01BABA"/>
	</linearGradient>
	<polygon clip-path="url(#SVGID_47_)" fill="url(#SVGID_48_)" points="73.549,107.457 73.538,110.145 71.477,110.137 
		71.488,107.448 	"/>
</g>
<g>
	<defs>
		<path id="SVGID_49_" d="M71.488,105.38h1v-3.113h-1V105.38z M71.488,100.192h1V97.08h-1V100.192z M71.488,95.003h1v-3.112h-1
			V95.003z M71.488,89.815h1v-3.111h-1V89.815z M71.488,84.627h1v-3.113h-1V84.627z"/>
	</defs>
	<clipPath id="SVGID_50_">
		<use xlink:href="#SVGID_49_"  overflow="visible"/>
	</clipPath>
	
		<linearGradient id="SVGID_51_" gradientUnits="userSpaceOnUse" x1="-197.707" y1="367.2632" x2="-196.707" y2="367.2632" gradientTransform="matrix(-0.5 124.5 124.5 0.5 -45750.9531 24455.6582)">
		<stop  offset="0" style="stop-color:#CADB41"/>
		<stop  offset="0.2728" style="stop-color:#97D360"/>
		<stop  offset="0.8939" style="stop-color:#17BEAC"/>
		<stop  offset="1" style="stop-color:#01BABA"/>
	</linearGradient>
	<polygon clip-path="url(#SVGID_50_)" fill="url(#SVGID_51_)" points="72.584,81.514 72.488,105.384 71.392,105.379 71.488,81.51 	
		"/>
</g>
<g>
	<defs>
		<rect id="SVGID_52_" x="71.488" y="77.939" width="1" height="1.5"/>
	</defs>
	<clipPath id="SVGID_53_">
		<use xlink:href="#SVGID_52_"  overflow="visible"/>
	</clipPath>
	
		<linearGradient id="SVGID_54_" gradientUnits="userSpaceOnUse" x1="-197.707" y1="367.2632" x2="-196.707" y2="367.2632" gradientTransform="matrix(-0.5 124.5 124.5 0.5 -45750.9531 24455.6582)">
		<stop  offset="0" style="stop-color:#CADB41"/>
		<stop  offset="0.2728" style="stop-color:#97D360"/>
		<stop  offset="0.8939" style="stop-color:#17BEAC"/>
		<stop  offset="1" style="stop-color:#01BABA"/>
	</linearGradient>
	<polygon clip-path="url(#SVGID_53_)" fill="url(#SVGID_54_)" points="72.494,77.939 72.488,79.443 71.482,79.439 71.488,77.935 	
		"/>
</g>
<g>
	<defs>
		<rect id="SVGID_55_" x="-197.707" y="-228.017" width="841.89" height="595.28"/>
	</defs>
	<clipPath id="SVGID_56_">
		<use xlink:href="#SVGID_55_"  overflow="visible"/>
	</clipPath>
	<path clip-path="url(#SVGID_56_)" fill="#131016" d="M186.336,122.606c-1.424,0-2.644-0.508-3.661-1.525
		c-1.017-1.016-1.526-2.236-1.526-3.662V96.542h-26.848v20.877c0,1.426-0.495,2.646-1.482,3.662
		c-1.017,1.018-2.238,1.525-3.662,1.525c-1.423,0-2.644-0.508-3.661-1.525c-1.017-1.016-1.525-2.236-1.525-3.662V65.334
		c0-1.423,0.508-2.644,1.525-3.661c1.017-1.017,2.238-1.524,3.661-1.524c1.424,0,2.645,0.507,3.662,1.524
		c0.987,1.017,1.482,2.238,1.482,3.661v20.877h26.848V65.334c0-1.423,0.509-2.644,1.526-3.661s2.237-1.524,3.661-1.524
		c1.424,0,2.644,0.507,3.661,1.524c1.017,1.017,1.526,2.238,1.526,3.661v52.084c0,1.426-0.509,2.646-1.526,3.662
		C188.98,122.098,187.76,122.606,186.336,122.606"/>
	<path clip-path="url(#SVGID_56_)" fill="#131016" d="M249.23,61.413c1.104,0.871,1.743,2.004,1.918,3.399
		c0.146,1.423-0.233,2.687-1.134,3.791l-18.873,23.624v25.237c0,1.424-0.508,2.644-1.524,3.66c-0.988,0.988-2.194,1.481-3.617,1.481
		c-1.425,0-2.63-0.493-3.618-1.481c-1.018-1.017-1.525-2.236-1.525-3.66V92.227l-18.873-23.624c-0.9-1.104-1.264-2.368-1.09-3.791
		c0.146-1.395,0.77-2.528,1.874-3.399c1.104-0.9,2.368-1.28,3.793-1.134c1.394,0.174,2.542,0.814,3.443,1.918L226,82.247
		l16.039-20.05c0.872-1.104,2.005-1.744,3.398-1.918C246.862,60.133,248.126,60.513,249.23,61.413"/>
	<path clip-path="url(#SVGID_56_)" fill="#131016" d="M283.794,59.974c5.405,0,10.01,1.787,13.817,5.361
		c3.835,3.574,5.754,7.875,5.754,12.901c0,4.941-1.848,9.183-5.537,12.727c-3.661,3.518-8.106,5.362-13.336,5.535h-0.043h-0.045
		h-0.087c-0.32,0.03-0.494,0.044-0.523,0.044l-0.261-0.044h-12.771v20.966c0,1.425-0.495,2.63-1.482,3.616
		c-1.018,1.02-2.238,1.527-3.661,1.527s-2.63-0.508-3.617-1.527c-1.018-0.986-1.526-2.191-1.526-3.616V65.118
		c0-1.424,0.509-2.631,1.526-3.618c0.987-1.017,2.194-1.526,3.617-1.526H283.794z M284.099,86.211
		c2.47-0.057,4.576-0.856,6.32-2.396c1.744-1.568,2.616-3.429,2.616-5.579c0-2.178-0.902-4.052-2.703-5.622
		c-1.802-1.57-3.981-2.354-6.538-2.354h-13.031v15.952H284.099z"/>
	<path clip-path="url(#SVGID_56_)" fill="#131016" d="M350.742,112.277c1.423,0,2.629,0.509,3.617,1.525
		c1.017,1.018,1.525,2.238,1.525,3.662c0,1.423-0.509,2.628-1.525,3.615c-0.988,1.019-2.194,1.527-3.617,1.527h-31.557
		c-1.424,0-2.631-0.509-3.617-1.527c-1.018-0.987-1.526-2.192-1.526-3.615v-52.26c0-1.453,0.509-2.674,1.526-3.661
		c0.986-1.017,2.193-1.527,3.617-1.527h0.043l31.514,0.087c1.423,0,2.643,0.51,3.66,1.527c0.987,1.017,1.482,2.237,1.482,3.661
		s-0.509,2.63-1.525,3.618c-0.988,1.017-2.194,1.523-3.617,1.523h-0.043l-26.327-0.087v15.822h19.004
		c1.423,0,2.643,0.496,3.661,1.483c1.016,1.017,1.525,2.236,1.525,3.66c0,1.425-0.51,2.645-1.525,3.661
		c-1.019,0.988-2.238,1.481-3.661,1.481h-19.004v15.822H350.742z"/>
	<path clip-path="url(#SVGID_56_)" fill="#131016" d="M408.013,78.193c0,3.835-1.192,7.308-3.573,10.417
		c-2.296,3.08-5.318,5.273-9.066,6.582l9.894,20.049c0.61,1.25,0.683,2.544,0.218,3.879c-0.435,1.336-1.293,2.326-2.571,2.964
		c-0.727,0.349-1.481,0.523-2.267,0.523c-2.121,0-3.646-0.961-4.576-2.877L384.52,96.325h-8.848v20.79
		c0,1.394-0.509,2.601-1.525,3.618c-0.987,0.986-2.194,1.48-3.618,1.48c-1.394,0-2.601-0.494-3.617-1.48
		c-0.987-1.018-1.481-2.225-1.481-3.618V65.162c0-1.424,0.494-2.631,1.481-3.618c1.017-1.017,2.224-1.527,3.617-1.527h18.045
		c5.376,0,9.952,1.774,13.73,5.318C406.109,68.879,408.013,73.167,408.013,78.193 M388.923,86.082
		c2.44-0.087,4.532-0.887,6.275-2.397c1.714-1.541,2.572-3.37,2.572-5.491c0-2.208-0.902-4.082-2.703-5.622
		c-1.802-1.541-3.966-2.312-6.494-2.312h-12.901v15.822H388.923z"/>
	<path clip-path="url(#SVGID_56_)" fill="#131016" d="M440.876,116.765c1.396,0,2.601,0.496,3.618,1.483
		c0.987,0.986,1.482,2.178,1.482,3.573c0,1.422-0.495,2.629-1.482,3.618c-1.018,0.987-2.223,1.481-3.618,1.481h-21.575
		c-1.424,0-2.631-0.494-3.617-1.481c-0.988-0.989-1.482-2.196-1.482-3.618c0-1.396,0.494-2.587,1.482-3.573
		c0.986-0.987,2.193-1.483,3.617-1.483H440.876z"/>
</g>
</svg>
